<?xml version="1.0" encoding="UTF-8" standalone="no"?>
<!DOCTYPE svg PUBLIC "-//W3C//DTD SVG 1.1//EN"
 "http://www.w3.org/Graphics/SVG/1.1/DTD/svg11.dtd">
<!-- Generated by graphviz version 2.34.0 (20140110.0949)
 -->
<!-- Title: heat_stack_test0 Pages: 1 -->
<svg width="2638pt" height="732pt"
 viewBox="0.00 0.00 2638.00 732.11" xmlns="http://www.w3.org/2000/svg" xmlns:xlink="http://www.w3.org/1999/xlink">
<g id="graph0" class="graph" transform="scale(1 1) rotate(0) translate(4 728.109)">
<title>heat_stack_test0</title>
<polygon fill="white" stroke="white" points="-4,4 -4,-728.109 2634,-728.109 2634,4 -4,4"/>
<!-- 72acf222&#45;df25&#45;42ca&#45;beca&#45;6897b508829e:wordpress_server -->
<g id="node1" class="node"><title>72acf222&#45;df25&#45;42ca&#45;beca&#45;6897b508829e:wordpress_server</title>
<polygon fill="none" stroke="black" points="446.5,-97.5 446.5,-166.5 687.5,-166.5 687.5,-97.5 446.5,-97.5"/>
<text text-anchor="middle" x="567" y="-151.3" font-family="Times,serif" font-size="14.00">wordpress_server</text>
<polyline fill="none" stroke="black" points="446.5,-143.5 687.5,-143.5 "/>
<text text-anchor="middle" x="567" y="-128.3" font-family="Times,serif" font-size="14.00">OS::Nova::Server</text>
<polyline fill="none" stroke="black" points="446.5,-120.5 687.5,-120.5 "/>
<text text-anchor="middle" x="567" y="-105.3" font-family="Times,serif" font-size="14.00">5c04d49e&#45;3f7a&#45;4cab&#45;a6f6&#45;b47147e95206</text>
</g>
<!-- 72acf222&#45;df25&#45;42ca&#45;beca&#45;6897b508829e:wordpress_wait_condition -->
<g id="node4" class="node"><title>72acf222&#45;df25&#45;42ca&#45;beca&#45;6897b508829e:wordpress_wait_condition</title>
<polygon fill="none" stroke="black" points="874.5,-117.5 874.5,-186.5 1107.5,-186.5 1107.5,-117.5 874.5,-117.5"/>
<text text-anchor="middle" x="991" y="-171.3" font-family="Times,serif" font-size="14.00">wordpress_wait_condition</text>
<polyline fill="none" stroke="black" points="874.5,-163.5 1107.5,-163.5 "/>
<text text-anchor="middle" x="991" y="-148.3" font-family="Times,serif" font-size="14.00">AWS::CloudFormation::WaitCondition</text>
<polyline fill="none" stroke="black" points="874.5,-140.5 1107.5,-140.5 "/>
<text text-anchor="middle" x="991" y="-125.3" font-family="Times,serif" font-size="14.00">wordpress_wait_handle</text>
</g>
<!-- 72acf222&#45;df25&#45;42ca&#45;beca&#45;6897b508829e:wordpress_server&#45;&gt;72acf222&#45;df25&#45;42ca&#45;beca&#45;6897b508829e:wordpress_wait_condition -->
<g id="edge5" class="edge"><title>72acf222&#45;df25&#45;42ca&#45;beca&#45;6897b508829e:wordpress_server&#45;&gt;72acf222&#45;df25&#45;42ca&#45;beca&#45;6897b508829e:wordpress_wait_condition</title>
<path fill="none" stroke="black" d="M687.518,-137.664C742.694,-140.279 808.221,-143.385 864.154,-146.036"/>
<polygon fill="black" stroke="black" points="864.328,-149.548 874.482,-146.525 864.659,-142.556 864.328,-149.548"/>
</g>
<!-- 72acf222&#45;df25&#45;42ca&#45;beca&#45;6897b508829e:wordpress_server_eth0 -->
<g id="node2" class="node"><title>72acf222&#45;df25&#45;42ca&#45;beca&#45;6897b508829e:wordpress_server_eth0</title>
<polygon fill="none" stroke="black" points="83,-0.5 83,-69.5 323,-69.5 323,-0.5 83,-0.5"/>
<text text-anchor="middle" x="203" y="-54.3" font-family="Times,serif" font-size="14.00">wordpress_server_eth0</text>
<polyline fill="none" stroke="black" points="83,-46.5 323,-46.5 "/>
<text text-anchor="middle" x="203" y="-31.3" font-family="Times,serif" font-size="14.00">OS::Neutron::Port</text>
<polyline fill="none" stroke="black" points="83,-23.5 323,-23.5 "/>
<text text-anchor="middle" x="203" y="-8.3" font-family="Times,serif" font-size="14.00">d5e69f4d&#45;a3ba&#45;4388&#45;9a16&#45;8daaa8a077f7</text>
</g>
<!-- 72acf222&#45;df25&#45;42ca&#45;beca&#45;6897b508829e:wordpress_server_eth0&#45;&gt;72acf222&#45;df25&#45;42ca&#45;beca&#45;6897b508829e:wordpress_server -->
<g id="edge6" class="edge"><title>72acf222&#45;df25&#45;42ca&#45;beca&#45;6897b508829e:wordpress_server_eth0&#45;&gt;72acf222&#45;df25&#45;42ca&#45;beca&#45;6897b508829e:wordpress_server</title>
<path fill="none" stroke="black" d="M323.072,-58.7511C350.448,-64.816 379.344,-71.7038 406,-79 422.633,-83.5528 440.088,-88.8183 457.104,-94.2269"/>
<polygon fill="black" stroke="black" points="456.471,-97.6997 467.062,-97.4237 458.611,-91.0347 456.471,-97.6997"/>
</g>
<!-- 72acf222&#45;df25&#45;42ca&#45;beca&#45;6897b508829e:wordpress_server_floating -->
<g id="node3" class="node"><title>72acf222&#45;df25&#45;42ca&#45;beca&#45;6897b508829e:wordpress_server_floating</title>
<polygon fill="none" stroke="black" points="442.5,-0.5 442.5,-69.5 691.5,-69.5 691.5,-0.5 442.5,-0.5"/>
<text text-anchor="middle" x="567" y="-54.3" font-family="Times,serif" font-size="14.00">wordpress_server_floating</text>
<polyline fill="none" stroke="black" points="442.5,-46.5 691.5,-46.5 "/>
<text text-anchor="middle" x="567" y="-31.3" font-family="Times,serif" font-size="14.00">OS::Neutron::FloatingIP</text>
<polyline fill="none" stroke="black" points="442.5,-23.5 691.5,-23.5 "/>
<text text-anchor="middle" x="567" y="-8.3" font-family="Times,serif" font-size="14.00">6b0516b6&#45;5425&#45;4677&#45;a277&#45;35d137d41cd8</text>
</g>
<!-- 72acf222&#45;df25&#45;42ca&#45;beca&#45;6897b508829e:wordpress_server_eth0&#45;&gt;72acf222&#45;df25&#45;42ca&#45;beca&#45;6897b508829e:wordpress_server_floating -->
<g id="edge7" class="edge"><title>72acf222&#45;df25&#45;42ca&#45;beca&#45;6897b508829e:wordpress_server_eth0&#45;&gt;72acf222&#45;df25&#45;42ca&#45;beca&#45;6897b508829e:wordpress_server_floating</title>
<path fill="none" stroke="black" d="M323.034,-35C357.975,-35 396.42,-35 432.216,-35"/>
<polygon fill="black" stroke="black" points="432.238,-38.5001 442.237,-35 432.237,-31.5001 432.238,-38.5001"/>
</g>
<!-- 72acf222&#45;df25&#45;42ca&#45;beca&#45;6897b508829e:wordpress_wait_handle -->
<g id="node5" class="node"><title>72acf222&#45;df25&#45;42ca&#45;beca&#45;6897b508829e:wordpress_wait_handle</title>
<polygon fill="none" stroke="black" points="67,-176.5 67,-245.5 339,-245.5 339,-176.5 67,-176.5"/>
<text text-anchor="middle" x="203" y="-230.3" font-family="Times,serif" font-size="14.00">wordpress_wait_handle</text>
<polyline fill="none" stroke="black" points="67,-222.5 339,-222.5 "/>
<text text-anchor="middle" x="203" y="-207.3" font-family="Times,serif" font-size="14.00">AWS::CloudFormation::WaitConditionHandle</text>
<polyline fill="none" stroke="black" points="67,-199.5 339,-199.5 "/>
<text text-anchor="middle" x="203" y="-184.3" font-family="Times,serif" font-size="14.00">67124c720c7c484699f34ca2ce93cbfa</text>
</g>
<!-- 72acf222&#45;df25&#45;42ca&#45;beca&#45;6897b508829e:wordpress_wait_handle&#45;&gt;72acf222&#45;df25&#45;42ca&#45;beca&#45;6897b508829e:wordpress_server -->
<g id="edge9" class="edge"><title>72acf222&#45;df25&#45;42ca&#45;beca&#45;6897b508829e:wordpress_wait_handle&#45;&gt;72acf222&#45;df25&#45;42ca&#45;beca&#45;6897b508829e:wordpress_server</title>
<path fill="none" stroke="black" d="M339.01,-181.609C361.387,-176.733 384.347,-171.727 406,-167 415.895,-164.84 426.133,-162.604 436.428,-160.354"/>
<polygon fill="black" stroke="black" points="437.285,-163.75 446.307,-158.195 435.79,-156.911 437.285,-163.75"/>
</g>
<!-- 72acf222&#45;df25&#45;42ca&#45;beca&#45;6897b508829e:wordpress_wait_handle&#45;&gt;72acf222&#45;df25&#45;42ca&#45;beca&#45;6897b508829e:wordpress_wait_condition -->
<g id="edge10" class="edge"><title>72acf222&#45;df25&#45;42ca&#45;beca&#45;6897b508829e:wordpress_wait_handle&#45;&gt;72acf222&#45;df25&#45;42ca&#45;beca&#45;6897b508829e:wordpress_wait_condition</title>
<path fill="none" stroke="black" d="M339.182,-201.624C437.151,-194.751 572.792,-185.075 692,-176 748.521,-171.697 811.052,-166.698 864.178,-162.379"/>
<polygon fill="black" stroke="black" points="864.645,-165.853 874.328,-161.553 864.077,-158.876 864.645,-165.853"/>
</g>
<!-- 72acf222&#45;df25&#45;42ca&#45;beca&#45;6897b508829e:wp_auth_key -->
<g id="node6" class="node"><title>72acf222&#45;df25&#45;42ca&#45;beca&#45;6897b508829e:wp_auth_key</title>
<polygon fill="none" stroke="black" points="59.5,-88.5 59.5,-157.5 346.5,-157.5 346.5,-88.5 59.5,-88.5"/>
<text text-anchor="middle" x="203" y="-142.3" font-family="Times,serif" font-size="14.00">wp_auth_key</text>
<polyline fill="none" stroke="black" points="59.5,-134.5 346.5,-134.5 "/>
<text text-anchor="middle" x="203" y="-119.3" font-family="Times,serif" font-size="14.00">OS::Heat::RandomString</text>
<polyline fill="none" stroke="black" points="59.5,-111.5 346.5,-111.5 "/>
<text text-anchor="middle" x="203" y="-96.3" font-family="Times,serif" font-size="14.00">bAdxTHwsmARQMGfG1gAKRrbM4BKvhVXx</text>
</g>
<!-- 72acf222&#45;df25&#45;42ca&#45;beca&#45;6897b508829e:wp_auth_key&#45;&gt;72acf222&#45;df25&#45;42ca&#45;beca&#45;6897b508829e:wordpress_server -->
<g id="edge8" class="edge"><title>72acf222&#45;df25&#45;42ca&#45;beca&#45;6897b508829e:wp_auth_key&#45;&gt;72acf222&#45;df25&#45;42ca&#45;beca&#45;6897b508829e:wordpress_server</title>
<path fill="none" stroke="black" d="M346.552,-126.544C376.109,-127.279 407.1,-128.049 436.172,-128.772"/>
<polygon fill="black" stroke="black" points="436.285,-132.276 446.369,-129.026 436.459,-125.278 436.285,-132.276"/>
</g>
<!-- ac165393&#45;1716&#45;4816&#45;b805&#45;88a20fbbc08e:h4tkpz3guxzg -->
<g id="node7" class="node"><title>ac165393&#45;1716&#45;4816&#45;b805&#45;88a20fbbc08e:h4tkpz3guxzg</title>
<polygon fill="none" stroke="black" points="0.5,-379.5 0.5,-448.5 405.5,-448.5 405.5,-379.5 0.5,-379.5"/>
<text text-anchor="middle" x="203" y="-433.3" font-family="Times,serif" font-size="14.00">h4tkpz3guxzg</text>
<polyline fill="none" stroke="black" points="0.5,-425.5 405.5,-425.5 "/>
<text text-anchor="middle" x="203" y="-410.3" font-family="Times,serif" font-size="14.00">file:///home/lars/projects/rdo&#45;hangout&#45;heat&#45;intro/wordpress&#45;server.yaml</text>
<polyline fill="none" stroke="black" points="0.5,-402.5 405.5,-402.5 "/>
<text text-anchor="middle" x="203" y="-387.3" font-family="Times,serif" font-size="14.00">72acf222&#45;df25&#45;42ca&#45;beca&#45;6897b508829e</text>
</g>
<!-- e8568b05&#45;f1ab&#45;43f5&#45;bf0b&#45;6e0ef0c92ab6:cpu_alarm_high -->
<g id="node8" class="node"><title>e8568b05&#45;f1ab&#45;43f5&#45;bf0b&#45;6e0ef0c92ab6:cpu_alarm_high</title>
<polygon fill="none" stroke="black" points="2390,-484.5 2390,-553.5 2630,-553.5 2630,-484.5 2390,-484.5"/>
<text text-anchor="middle" x="2510" y="-538.3" font-family="Times,serif" font-size="14.00">cpu_alarm_high</text>
<polyline fill="none" stroke="black" points="2390,-530.5 2630,-530.5 "/>
<text text-anchor="middle" x="2510" y="-515.3" font-family="Times,serif" font-size="14.00">OS::Ceilometer::Alarm</text>
<polyline fill="none" stroke="black" points="2390,-507.5 2630,-507.5 "/>
<text text-anchor="middle" x="2510" y="-492.3" font-family="Times,serif" font-size="14.00">be16dcc6&#45;4a54&#45;442e&#45;ac58&#45;71cf01eec996</text>
</g>
<!-- e8568b05&#45;f1ab&#45;43f5&#45;bf0b&#45;6e0ef0c92ab6:cpu_alarm_low -->
<g id="node9" class="node"><title>e8568b05&#45;f1ab&#45;43f5&#45;bf0b&#45;6e0ef0c92ab6:cpu_alarm_low</title>
<polygon fill="none" stroke="black" points="2390.5,-396.5 2390.5,-465.5 2629.5,-465.5 2629.5,-396.5 2390.5,-396.5"/>
<text text-anchor="middle" x="2510" y="-450.3" font-family="Times,serif" font-size="14.00">cpu_alarm_low</text>
<polyline fill="none" stroke="black" points="2390.5,-442.5 2629.5,-442.5 "/>
<text text-anchor="middle" x="2510" y="-427.3" font-family="Times,serif" font-size="14.00">OS::Ceilometer::Alarm</text>
<polyline fill="none" stroke="black" points="2390.5,-419.5 2629.5,-419.5 "/>
<text text-anchor="middle" x="2510" y="-404.3" font-family="Times,serif" font-size="14.00">796bf5e8&#45;9e3b&#45;4af7&#45;bac7&#45;2edf1b04b0c2</text>
</g>
<!-- e8568b05&#45;f1ab&#45;43f5&#45;bf0b&#45;6e0ef0c92ab6:db_password -->
<g id="node10" class="node"><title>e8568b05&#45;f1ab&#45;43f5&#45;bf0b&#45;6e0ef0c92ab6:db_password</title>
<polygon fill="none" stroke="black" points="862,-371.5 862,-440.5 1120,-440.5 1120,-371.5 862,-371.5"/>
<text text-anchor="middle" x="991" y="-425.3" font-family="Times,serif" font-size="14.00">db_password</text>
<polyline fill="none" stroke="black" points="862,-417.5 1120,-417.5 "/>
<text text-anchor="middle" x="991" y="-402.3" font-family="Times,serif" font-size="14.00">OS::Heat::RandomString</text>
<polyline fill="none" stroke="black" points="862,-394.5 1120,-394.5 "/>
<text text-anchor="middle" x="991" y="-379.3" font-family="Times,serif" font-size="14.00">rgzMnSccpVNR2sS8wBGlcvT4bUYhhK6F</text>
</g>
<!-- e8568b05&#45;f1ab&#45;43f5&#45;bf0b&#45;6e0ef0c92ab6:mysql_server -->
<g id="node15" class="node"><title>e8568b05&#45;f1ab&#45;43f5&#45;bf0b&#45;6e0ef0c92ab6:mysql_server</title>
<polygon fill="none" stroke="black" points="1290.5,-358.5 1290.5,-427.5 1529.5,-427.5 1529.5,-358.5 1290.5,-358.5"/>
<text text-anchor="middle" x="1410" y="-412.3" font-family="Times,serif" font-size="14.00">mysql_server</text>
<polyline fill="none" stroke="black" points="1290.5,-404.5 1529.5,-404.5 "/>
<text text-anchor="middle" x="1410" y="-389.3" font-family="Times,serif" font-size="14.00">OS::Nova::Server</text>
<polyline fill="none" stroke="black" points="1290.5,-381.5 1529.5,-381.5 "/>
<text text-anchor="middle" x="1410" y="-366.3" font-family="Times,serif" font-size="14.00">ef063f67&#45;37f1&#45;4ae6&#45;ab09&#45;755df1b66954</text>
</g>
<!-- e8568b05&#45;f1ab&#45;43f5&#45;bf0b&#45;6e0ef0c92ab6:db_password&#45;&gt;e8568b05&#45;f1ab&#45;43f5&#45;bf0b&#45;6e0ef0c92ab6:mysql_server -->
<g id="edge12" class="edge"><title>e8568b05&#45;f1ab&#45;43f5&#45;bf0b&#45;6e0ef0c92ab6:db_password&#45;&gt;e8568b05&#45;f1ab&#45;43f5&#45;bf0b&#45;6e0ef0c92ab6:mysql_server</title>
<path fill="none" stroke="black" d="M1120.23,-402.002C1171.06,-400.418 1229.4,-398.599 1280.27,-397.013"/>
<polygon fill="black" stroke="black" points="1280.46,-400.509 1290.34,-396.699 1280.24,-393.513 1280.46,-400.509"/>
</g>
<!-- e8568b05&#45;f1ab&#45;43f5&#45;bf0b&#45;6e0ef0c92ab6:wordpress_group -->
<g id="node25" class="node"><title>e8568b05&#45;f1ab&#45;43f5&#45;bf0b&#45;6e0ef0c92ab6:wordpress_group</title>
<polygon fill="none" stroke="black" points="1850.5,-440.5 1850.5,-509.5 2095.5,-509.5 2095.5,-440.5 1850.5,-440.5"/>
<text text-anchor="middle" x="1973" y="-494.3" font-family="Times,serif" font-size="14.00">wordpress_group</text>
<polyline fill="none" stroke="black" points="1850.5,-486.5 2095.5,-486.5 "/>
<text text-anchor="middle" x="1973" y="-471.3" font-family="Times,serif" font-size="14.00">OS::Heat::AutoScalingGroup</text>
<polyline fill="none" stroke="black" points="1850.5,-463.5 2095.5,-463.5 "/>
<text text-anchor="middle" x="1973" y="-448.3" font-family="Times,serif" font-size="14.00">ac165393&#45;1716&#45;4816&#45;b805&#45;88a20fbbc08e</text>
</g>
<!-- e8568b05&#45;f1ab&#45;43f5&#45;bf0b&#45;6e0ef0c92ab6:db_password&#45;&gt;e8568b05&#45;f1ab&#45;43f5&#45;bf0b&#45;6e0ef0c92ab6:wordpress_group -->
<g id="edge11" class="edge"><title>e8568b05&#45;f1ab&#45;43f5&#45;bf0b&#45;6e0ef0c92ab6:db_password&#45;&gt;e8568b05&#45;f1ab&#45;43f5&#45;bf0b&#45;6e0ef0c92ab6:wordpress_group</title>
<path fill="none" stroke="black" d="M1120.22,-420.7C1172.79,-426.372 1234.26,-432.551 1290,-437 1481.01,-452.247 1702.59,-463.386 1840.06,-469.528"/>
<polygon fill="black" stroke="black" points="1840.08,-473.032 1850.22,-469.98 1840.39,-466.039 1840.08,-473.032"/>
</g>
<!-- e8568b05&#45;f1ab&#45;43f5&#45;bf0b&#45;6e0ef0c92ab6:extrouter -->
<g id="node11" class="node"><title>e8568b05&#45;f1ab&#45;43f5&#45;bf0b&#45;6e0ef0c92ab6:extrouter</title>
<polygon fill="none" stroke="black" points="444.5,-610.5 444.5,-679.5 689.5,-679.5 689.5,-610.5 444.5,-610.5"/>
<text text-anchor="middle" x="567" y="-664.3" font-family="Times,serif" font-size="14.00">extrouter</text>
<polyline fill="none" stroke="black" points="444.5,-656.5 689.5,-656.5 "/>
<text text-anchor="middle" x="567" y="-641.3" font-family="Times,serif" font-size="14.00">OS::Neutron::Router</text>
<polyline fill="none" stroke="black" points="444.5,-633.5 689.5,-633.5 "/>
<text text-anchor="middle" x="567" y="-618.3" font-family="Times,serif" font-size="14.00">4cd685c1&#45;525a&#45;402a&#45;b00d&#45;6e821f9147d1</text>
</g>
<!-- e8568b05&#45;f1ab&#45;43f5&#45;bf0b&#45;6e0ef0c92ab6:extrouter_inside -->
<g id="node12" class="node"><title>e8568b05&#45;f1ab&#45;43f5&#45;bf0b&#45;6e0ef0c92ab6:extrouter_inside</title>
<polygon fill="none" stroke="black" points="728,-598.5 728,-667.5 1254,-667.5 1254,-598.5 728,-598.5"/>
<text text-anchor="middle" x="991" y="-652.3" font-family="Times,serif" font-size="14.00">extrouter_inside</text>
<polyline fill="none" stroke="black" points="728,-644.5 1254,-644.5 "/>
<text text-anchor="middle" x="991" y="-629.3" font-family="Times,serif" font-size="14.00">OS::Neutron::RouterInterface</text>
<polyline fill="none" stroke="black" points="728,-621.5 1254,-621.5 "/>
<text text-anchor="middle" x="991" y="-606.3" font-family="Times,serif" font-size="14.00">4cd685c1&#45;525a&#45;402a&#45;b00d&#45;6e821f9147d1:subnet_id=fdc8aaff&#45;1dee&#45;46e9&#45;a9ab&#45;7650020ff171</text>
</g>
<!-- e8568b05&#45;f1ab&#45;43f5&#45;bf0b&#45;6e0ef0c92ab6:extrouter&#45;&gt;e8568b05&#45;f1ab&#45;43f5&#45;bf0b&#45;6e0ef0c92ab6:extrouter_inside -->
<g id="edge13" class="edge"><title>e8568b05&#45;f1ab&#45;43f5&#45;bf0b&#45;6e0ef0c92ab6:extrouter&#45;&gt;e8568b05&#45;f1ab&#45;43f5&#45;bf0b&#45;6e0ef0c92ab6:extrouter_inside</title>
<path fill="none" stroke="black" d="M689.777,-641.537C698.902,-641.278 708.299,-641.01 717.881,-640.738"/>
<polygon fill="black" stroke="black" points="718.033,-644.235 727.929,-640.452 717.834,-637.238 718.033,-644.235"/>
</g>
<!-- e8568b05&#45;f1ab&#45;43f5&#45;bf0b&#45;6e0ef0c92ab6:mysql_server_floating -->
<g id="node17" class="node"><title>e8568b05&#45;f1ab&#45;43f5&#45;bf0b&#45;6e0ef0c92ab6:mysql_server_floating</title>
<polygon fill="none" stroke="black" points="1290.5,-572.5 1290.5,-641.5 1529.5,-641.5 1529.5,-572.5 1290.5,-572.5"/>
<text text-anchor="middle" x="1410" y="-626.3" font-family="Times,serif" font-size="14.00">mysql_server_floating</text>
<polyline fill="none" stroke="black" points="1290.5,-618.5 1529.5,-618.5 "/>
<text text-anchor="middle" x="1410" y="-603.3" font-family="Times,serif" font-size="14.00">OS::Neutron::FloatingIP</text>
<polyline fill="none" stroke="black" points="1290.5,-595.5 1529.5,-595.5 "/>
<text text-anchor="middle" x="1410" y="-580.3" font-family="Times,serif" font-size="14.00">aac46c62&#45;e566&#45;4146&#45;9bb4&#45;71df2fe50ef7</text>
</g>
<!-- e8568b05&#45;f1ab&#45;43f5&#45;bf0b&#45;6e0ef0c92ab6:extrouter_inside&#45;&gt;e8568b05&#45;f1ab&#45;43f5&#45;bf0b&#45;6e0ef0c92ab6:mysql_server_floating -->
<g id="edge1" class="edge"><title>e8568b05&#45;f1ab&#45;43f5&#45;bf0b&#45;6e0ef0c92ab6:extrouter_inside&#45;&gt;e8568b05&#45;f1ab&#45;43f5&#45;bf0b&#45;6e0ef0c92ab6:mysql_server_floating</title>
<path fill="none" stroke="black" d="M1254.02,-616.663C1262.85,-616.113 1271.54,-615.571 1280.02,-615.042"/>
<polygon fill="black" stroke="black" points="1280.5,-618.519 1290.27,-614.403 1280.07,-611.532 1280.5,-618.519"/>
</g>
<!-- e8568b05&#45;f1ab&#45;43f5&#45;bf0b&#45;6e0ef0c92ab6:extrouter_inside&#45;&gt;e8568b05&#45;f1ab&#45;43f5&#45;bf0b&#45;6e0ef0c92ab6:wordpress_group -->
<g id="edge2" class="edge"><title>e8568b05&#45;f1ab&#45;43f5&#45;bf0b&#45;6e0ef0c92ab6:extrouter_inside&#45;&gt;e8568b05&#45;f1ab&#45;43f5&#45;bf0b&#45;6e0ef0c92ab6:wordpress_group</title>
<path fill="none" stroke="black" d="M1254,-649.713C1266.17,-650.21 1278.21,-650.644 1290,-651 1396.62,-654.217 1424.67,-667.808 1530,-651 1661.16,-630.072 1691.67,-609.731 1814,-558 1843.87,-545.368 1875.73,-529.191 1902.95,-514.479"/>
<polygon fill="black" stroke="black" points="1904.89,-517.409 1912,-509.553 1901.54,-511.262 1904.89,-517.409"/>
</g>
<!-- e8568b05&#45;f1ab&#45;43f5&#45;bf0b&#45;6e0ef0c92ab6:fixed_network -->
<g id="node13" class="node"><title>e8568b05&#45;f1ab&#45;43f5&#45;bf0b&#45;6e0ef0c92ab6:fixed_network</title>
<polygon fill="none" stroke="black" points="81.5,-522.5 81.5,-591.5 324.5,-591.5 324.5,-522.5 81.5,-522.5"/>
<text text-anchor="middle" x="203" y="-576.3" font-family="Times,serif" font-size="14.00">fixed_network</text>
<polyline fill="none" stroke="black" points="81.5,-568.5 324.5,-568.5 "/>
<text text-anchor="middle" x="203" y="-553.3" font-family="Times,serif" font-size="14.00">OS::Neutron::Net</text>
<polyline fill="none" stroke="black" points="81.5,-545.5 324.5,-545.5 "/>
<text text-anchor="middle" x="203" y="-530.3" font-family="Times,serif" font-size="14.00">faed55ae&#45;ab76&#45;43ba&#45;9339&#45;54643d75dc65</text>
</g>
<!-- e8568b05&#45;f1ab&#45;43f5&#45;bf0b&#45;6e0ef0c92ab6:fixed_subnet -->
<g id="node14" class="node"><title>e8568b05&#45;f1ab&#45;43f5&#45;bf0b&#45;6e0ef0c92ab6:fixed_subnet</title>
<polygon fill="none" stroke="black" points="450.5,-522.5 450.5,-591.5 683.5,-591.5 683.5,-522.5 450.5,-522.5"/>
<text text-anchor="middle" x="567" y="-576.3" font-family="Times,serif" font-size="14.00">fixed_subnet</text>
<polyline fill="none" stroke="black" points="450.5,-568.5 683.5,-568.5 "/>
<text text-anchor="middle" x="567" y="-553.3" font-family="Times,serif" font-size="14.00">OS::Neutron::Subnet</text>
<polyline fill="none" stroke="black" points="450.5,-545.5 683.5,-545.5 "/>
<text text-anchor="middle" x="567" y="-530.3" font-family="Times,serif" font-size="14.00">fdc8aaff&#45;1dee&#45;46e9&#45;a9ab&#45;7650020ff171</text>
</g>
<!-- e8568b05&#45;f1ab&#45;43f5&#45;bf0b&#45;6e0ef0c92ab6:fixed_network&#45;&gt;e8568b05&#45;f1ab&#45;43f5&#45;bf0b&#45;6e0ef0c92ab6:fixed_subnet -->
<g id="edge18" class="edge"><title>e8568b05&#45;f1ab&#45;43f5&#45;bf0b&#45;6e0ef0c92ab6:fixed_network&#45;&gt;e8568b05&#45;f1ab&#45;43f5&#45;bf0b&#45;6e0ef0c92ab6:fixed_subnet</title>
<path fill="none" stroke="black" d="M324.541,-557C361.577,-557 402.429,-557 439.831,-557"/>
<polygon fill="black" stroke="black" points="440.283,-560.5 450.283,-557 440.283,-553.5 440.283,-560.5"/>
</g>
<!-- e8568b05&#45;f1ab&#45;43f5&#45;bf0b&#45;6e0ef0c92ab6:mysql_server_eth0 -->
<g id="node16" class="node"><title>e8568b05&#45;f1ab&#45;43f5&#45;bf0b&#45;6e0ef0c92ab6:mysql_server_eth0</title>
<polygon fill="none" stroke="black" points="870,-459.5 870,-528.5 1112,-528.5 1112,-459.5 870,-459.5"/>
<text text-anchor="middle" x="991" y="-513.3" font-family="Times,serif" font-size="14.00">mysql_server_eth0</text>
<polyline fill="none" stroke="black" points="870,-505.5 1112,-505.5 "/>
<text text-anchor="middle" x="991" y="-490.3" font-family="Times,serif" font-size="14.00">OS::Neutron::Port</text>
<polyline fill="none" stroke="black" points="870,-482.5 1112,-482.5 "/>
<text text-anchor="middle" x="991" y="-467.3" font-family="Times,serif" font-size="14.00">ee327218&#45;6fa4&#45;4d8d&#45;b758&#45;75f16ac200d5</text>
</g>
<!-- e8568b05&#45;f1ab&#45;43f5&#45;bf0b&#45;6e0ef0c92ab6:fixed_network&#45;&gt;e8568b05&#45;f1ab&#45;43f5&#45;bf0b&#45;6e0ef0c92ab6:mysql_server_eth0 -->
<g id="edge20" class="edge"><title>e8568b05&#45;f1ab&#45;43f5&#45;bf0b&#45;6e0ef0c92ab6:fixed_network&#45;&gt;e8568b05&#45;f1ab&#45;43f5&#45;bf0b&#45;6e0ef0c92ab6:mysql_server_eth0</title>
<path fill="none" stroke="black" d="M324.565,-531.129C362.024,-524.058 403.57,-517.195 442,-513 584.242,-497.472 748.366,-493.628 859.64,-493.101"/>
<polygon fill="black" stroke="black" points="859.919,-496.6 869.905,-493.061 859.891,-489.6 859.919,-496.6"/>
</g>
<!-- e8568b05&#45;f1ab&#45;43f5&#45;bf0b&#45;6e0ef0c92ab6:fixed_network&#45;&gt;e8568b05&#45;f1ab&#45;43f5&#45;bf0b&#45;6e0ef0c92ab6:wordpress_group -->
<g id="edge19" class="edge"><title>e8568b05&#45;f1ab&#45;43f5&#45;bf0b&#45;6e0ef0c92ab6:fixed_network&#45;&gt;e8568b05&#45;f1ab&#45;43f5&#45;bf0b&#45;6e0ef0c92ab6:wordpress_group</title>
<path fill="none" stroke="black" d="M250.741,-591.755C296.73,-623.733 370.289,-669.113 442,-689 676.839,-754.125 746.298,-708 990,-708 990,-708 990,-708 1411,-708 1594.82,-708 1650.61,-699.22 1814,-615 1861.35,-590.594 1905.86,-548.772 1935.5,-517.177"/>
<polygon fill="black" stroke="black" points="1938.11,-519.507 1942.33,-509.79 1932.97,-514.754 1938.11,-519.507"/>
</g>
<!-- e8568b05&#45;f1ab&#45;43f5&#45;bf0b&#45;6e0ef0c92ab6:fixed_subnet&#45;&gt;e8568b05&#45;f1ab&#45;43f5&#45;bf0b&#45;6e0ef0c92ab6:extrouter_inside -->
<g id="edge30" class="edge"><title>e8568b05&#45;f1ab&#45;43f5&#45;bf0b&#45;6e0ef0c92ab6:fixed_subnet&#45;&gt;e8568b05&#45;f1ab&#45;43f5&#45;bf0b&#45;6e0ef0c92ab6:extrouter_inside</title>
<path fill="none" stroke="black" d="M683.592,-577.818C716.046,-583.662 752.314,-590.194 788.225,-596.661"/>
<polygon fill="black" stroke="black" points="787.879,-600.155 798.341,-598.483 789.12,-593.266 787.879,-600.155"/>
</g>
<!-- e8568b05&#45;f1ab&#45;43f5&#45;bf0b&#45;6e0ef0c92ab6:fixed_subnet&#45;&gt;e8568b05&#45;f1ab&#45;43f5&#45;bf0b&#45;6e0ef0c92ab6:mysql_server_eth0 -->
<g id="edge29" class="edge"><title>e8568b05&#45;f1ab&#45;43f5&#45;bf0b&#45;6e0ef0c92ab6:fixed_subnet&#45;&gt;e8568b05&#45;f1ab&#45;43f5&#45;bf0b&#45;6e0ef0c92ab6:mysql_server_eth0</title>
<path fill="none" stroke="black" d="M683.592,-539.743C738.149,-531.599 803.486,-521.845 859.785,-513.44"/>
<polygon fill="black" stroke="black" points="860.45,-516.879 869.823,-511.941 859.416,-509.956 860.45,-516.879"/>
</g>
<!-- e8568b05&#45;f1ab&#45;43f5&#45;bf0b&#45;6e0ef0c92ab6:fixed_subnet&#45;&gt;e8568b05&#45;f1ab&#45;43f5&#45;bf0b&#45;6e0ef0c92ab6:wordpress_group -->
<g id="edge31" class="edge"><title>e8568b05&#45;f1ab&#45;43f5&#45;bf0b&#45;6e0ef0c92ab6:fixed_subnet&#45;&gt;e8568b05&#45;f1ab&#45;43f5&#45;bf0b&#45;6e0ef0c92ab6:wordpress_group</title>
<path fill="none" stroke="black" d="M683.684,-555.585C820.108,-553.501 1053.68,-548.637 1254,-538 1503.3,-524.762 1565.57,-518.687 1814,-494 1822.59,-493.146 1831.44,-492.218 1840.35,-491.246"/>
<polygon fill="black" stroke="black" points="1840.87,-494.71 1850.43,-490.132 1840.1,-487.752 1840.87,-494.71"/>
</g>
<!-- e8568b05&#45;f1ab&#45;43f5&#45;bf0b&#45;6e0ef0c92ab6:mysql_wait_condition -->
<g id="node18" class="node"><title>e8568b05&#45;f1ab&#45;43f5&#45;bf0b&#45;6e0ef0c92ab6:mysql_wait_condition</title>
<polygon fill="none" stroke="black" points="1573.5,-358.5 1573.5,-427.5 1806.5,-427.5 1806.5,-358.5 1573.5,-358.5"/>
<text text-anchor="middle" x="1690" y="-412.3" font-family="Times,serif" font-size="14.00">mysql_wait_condition</text>
<polyline fill="none" stroke="black" points="1573.5,-404.5 1806.5,-404.5 "/>
<text text-anchor="middle" x="1690" y="-389.3" font-family="Times,serif" font-size="14.00">AWS::CloudFormation::WaitCondition</text>
<polyline fill="none" stroke="black" points="1573.5,-381.5 1806.5,-381.5 "/>
<text text-anchor="middle" x="1690" y="-366.3" font-family="Times,serif" font-size="14.00">mysql_wait_handle</text>
</g>
<!-- e8568b05&#45;f1ab&#45;43f5&#45;bf0b&#45;6e0ef0c92ab6:mysql_server&#45;&gt;e8568b05&#45;f1ab&#45;43f5&#45;bf0b&#45;6e0ef0c92ab6:mysql_wait_condition -->
<g id="edge22" class="edge"><title>e8568b05&#45;f1ab&#45;43f5&#45;bf0b&#45;6e0ef0c92ab6:mysql_server&#45;&gt;e8568b05&#45;f1ab&#45;43f5&#45;bf0b&#45;6e0ef0c92ab6:mysql_wait_condition</title>
<path fill="none" stroke="black" d="M1529.7,-393C1540.78,-393 1552.02,-393 1563.16,-393"/>
<polygon fill="black" stroke="black" points="1563.35,-396.5 1573.35,-393 1563.35,-389.5 1563.35,-396.5"/>
</g>
<!-- e8568b05&#45;f1ab&#45;43f5&#45;bf0b&#45;6e0ef0c92ab6:mysql_server_eth0&#45;&gt;e8568b05&#45;f1ab&#45;43f5&#45;bf0b&#45;6e0ef0c92ab6:mysql_server -->
<g id="edge28" class="edge"><title>e8568b05&#45;f1ab&#45;43f5&#45;bf0b&#45;6e0ef0c92ab6:mysql_server_eth0&#45;&gt;e8568b05&#45;f1ab&#45;43f5&#45;bf0b&#45;6e0ef0c92ab6:mysql_server</title>
<path fill="none" stroke="black" d="M1112.01,-478.643C1156.95,-471.642 1208.19,-462.155 1254,-450 1273.77,-444.755 1294.55,-438.007 1314.25,-431.002"/>
<polygon fill="black" stroke="black" points="1315.61,-434.233 1323.83,-427.548 1313.23,-427.649 1315.61,-434.233"/>
</g>
<!-- e8568b05&#45;f1ab&#45;43f5&#45;bf0b&#45;6e0ef0c92ab6:mysql_server_eth0&#45;&gt;e8568b05&#45;f1ab&#45;43f5&#45;bf0b&#45;6e0ef0c92ab6:mysql_server_floating -->
<g id="edge26" class="edge"><title>e8568b05&#45;f1ab&#45;43f5&#45;bf0b&#45;6e0ef0c92ab6:mysql_server_eth0&#45;&gt;e8568b05&#45;f1ab&#45;43f5&#45;bf0b&#45;6e0ef0c92ab6:mysql_server_floating</title>
<path fill="none" stroke="black" d="M1112.05,-526.533C1164.72,-540.803 1226.62,-557.578 1280.24,-572.108"/>
<polygon fill="black" stroke="black" points="1279.59,-575.557 1290.15,-574.794 1281.42,-568.801 1279.59,-575.557"/>
</g>
<!-- e8568b05&#45;f1ab&#45;43f5&#45;bf0b&#45;6e0ef0c92ab6:mysql_server_eth0&#45;&gt;e8568b05&#45;f1ab&#45;43f5&#45;bf0b&#45;6e0ef0c92ab6:wordpress_group -->
<g id="edge27" class="edge"><title>e8568b05&#45;f1ab&#45;43f5&#45;bf0b&#45;6e0ef0c92ab6:mysql_server_eth0&#45;&gt;e8568b05&#45;f1ab&#45;43f5&#45;bf0b&#45;6e0ef0c92ab6:wordpress_group</title>
<path fill="none" stroke="black" d="M1112.17,-491.67C1296.82,-488.09 1649.01,-481.262 1840.35,-477.552"/>
<polygon fill="black" stroke="black" points="1840.53,-481.05 1850.47,-477.356 1840.4,-474.051 1840.53,-481.05"/>
</g>
<!-- e8568b05&#45;f1ab&#45;43f5&#45;bf0b&#45;6e0ef0c92ab6:mysql_wait_condition&#45;&gt;e8568b05&#45;f1ab&#45;43f5&#45;bf0b&#45;6e0ef0c92ab6:wordpress_group -->
<g id="edge23" class="edge"><title>e8568b05&#45;f1ab&#45;43f5&#45;bf0b&#45;6e0ef0c92ab6:mysql_wait_condition&#45;&gt;e8568b05&#45;f1ab&#45;43f5&#45;bf0b&#45;6e0ef0c92ab6:wordpress_group</title>
<path fill="none" stroke="black" d="M1806.51,-426.708C1818.81,-430.298 1831.38,-433.965 1843.82,-437.594"/>
<polygon fill="black" stroke="black" points="1843.18,-441.053 1853.76,-440.495 1845.14,-434.333 1843.18,-441.053"/>
</g>
<!-- e8568b05&#45;f1ab&#45;43f5&#45;bf0b&#45;6e0ef0c92ab6:mysql_wait_handle -->
<g id="node19" class="node"><title>e8568b05&#45;f1ab&#45;43f5&#45;bf0b&#45;6e0ef0c92ab6:mysql_wait_handle</title>
<polygon fill="none" stroke="black" points="855,-283.5 855,-352.5 1127,-352.5 1127,-283.5 855,-283.5"/>
<text text-anchor="middle" x="991" y="-337.3" font-family="Times,serif" font-size="14.00">mysql_wait_handle</text>
<polyline fill="none" stroke="black" points="855,-329.5 1127,-329.5 "/>
<text text-anchor="middle" x="991" y="-314.3" font-family="Times,serif" font-size="14.00">AWS::CloudFormation::WaitConditionHandle</text>
<polyline fill="none" stroke="black" points="855,-306.5 1127,-306.5 "/>
<text text-anchor="middle" x="991" y="-291.3" font-family="Times,serif" font-size="14.00">bc285e8e148b445caa5c379a19943916</text>
</g>
<!-- e8568b05&#45;f1ab&#45;43f5&#45;bf0b&#45;6e0ef0c92ab6:mysql_wait_handle&#45;&gt;e8568b05&#45;f1ab&#45;43f5&#45;bf0b&#45;6e0ef0c92ab6:mysql_server -->
<g id="edge16" class="edge"><title>e8568b05&#45;f1ab&#45;43f5&#45;bf0b&#45;6e0ef0c92ab6:mysql_wait_handle&#45;&gt;e8568b05&#45;f1ab&#45;43f5&#45;bf0b&#45;6e0ef0c92ab6:mysql_server</title>
<path fill="none" stroke="black" d="M1127.11,-339.868C1167.93,-346.696 1212.83,-354.429 1254,-362 1262.53,-363.569 1271.32,-365.223 1280.17,-366.917"/>
<polygon fill="black" stroke="black" points="1279.69,-370.39 1290.17,-368.845 1281.02,-363.517 1279.69,-370.39"/>
</g>
<!-- e8568b05&#45;f1ab&#45;43f5&#45;bf0b&#45;6e0ef0c92ab6:mysql_wait_handle&#45;&gt;e8568b05&#45;f1ab&#45;43f5&#45;bf0b&#45;6e0ef0c92ab6:mysql_wait_condition -->
<g id="edge15" class="edge"><title>e8568b05&#45;f1ab&#45;43f5&#45;bf0b&#45;6e0ef0c92ab6:mysql_wait_handle&#45;&gt;e8568b05&#45;f1ab&#45;43f5&#45;bf0b&#45;6e0ef0c92ab6:mysql_wait_condition</title>
<path fill="none" stroke="black" d="M1127.19,-317.87C1236.52,-319.661 1394.08,-326.54 1530,-349 1541.59,-350.915 1553.55,-353.346 1565.46,-356.079"/>
<polygon fill="black" stroke="black" points="1564.91,-359.544 1575.44,-358.44 1566.52,-352.732 1564.91,-359.544"/>
</g>
<!-- e8568b05&#45;f1ab&#45;43f5&#45;bf0b&#45;6e0ef0c92ab6:secgroup_common -->
<g id="node20" class="node"><title>e8568b05&#45;f1ab&#45;43f5&#45;bf0b&#45;6e0ef0c92ab6:secgroup_common</title>
<polygon fill="none" stroke="black" points="447,-241.5 447,-310.5 687,-310.5 687,-241.5 447,-241.5"/>
<text text-anchor="middle" x="567" y="-295.3" font-family="Times,serif" font-size="14.00">secgroup_common</text>
<polyline fill="none" stroke="black" points="447,-287.5 687,-287.5 "/>
<text text-anchor="middle" x="567" y="-272.3" font-family="Times,serif" font-size="14.00">OS::Neutron::SecurityGroup</text>
<polyline fill="none" stroke="black" points="447,-264.5 687,-264.5 "/>
<text text-anchor="middle" x="567" y="-249.3" font-family="Times,serif" font-size="14.00">b53f86e1&#45;2448&#45;4e1c&#45;bf29&#45;b41c31df7c69</text>
</g>
<!-- e8568b05&#45;f1ab&#45;43f5&#45;bf0b&#45;6e0ef0c92ab6:secgroup_common&#45;&gt;e8568b05&#45;f1ab&#45;43f5&#45;bf0b&#45;6e0ef0c92ab6:mysql_server_eth0 -->
<g id="edge25" class="edge"><title>e8568b05&#45;f1ab&#45;43f5&#45;bf0b&#45;6e0ef0c92ab6:secgroup_common&#45;&gt;e8568b05&#45;f1ab&#45;43f5&#45;bf0b&#45;6e0ef0c92ab6:mysql_server_eth0</title>
<path fill="none" stroke="black" d="M613.449,-310.656C638.474,-331.141 669.021,-358.578 692,-387 712.276,-412.078 701.549,-431.552 728,-450 766.072,-476.554 814.701,-489.03 859.702,-494.393"/>
<polygon fill="black" stroke="black" points="859.526,-497.894 869.844,-495.491 860.279,-490.935 859.526,-497.894"/>
</g>
<!-- e8568b05&#45;f1ab&#45;43f5&#45;bf0b&#45;6e0ef0c92ab6:secgroup_common&#45;&gt;e8568b05&#45;f1ab&#45;43f5&#45;bf0b&#45;6e0ef0c92ab6:wordpress_group -->
<g id="edge24" class="edge"><title>e8568b05&#45;f1ab&#45;43f5&#45;bf0b&#45;6e0ef0c92ab6:secgroup_common&#45;&gt;e8568b05&#45;f1ab&#45;43f5&#45;bf0b&#45;6e0ef0c92ab6:wordpress_group</title>
<path fill="none" stroke="black" d="M687.349,-257.276C916.47,-226.751 1429.32,-184.922 1814,-349 1859.52,-368.415 1902.84,-404.685 1932.57,-433.343"/>
<polygon fill="black" stroke="black" points="1930.24,-435.955 1939.83,-440.45 1935.13,-430.953 1930.24,-435.955"/>
</g>
<!-- e8568b05&#45;f1ab&#45;43f5&#45;bf0b&#45;6e0ef0c92ab6:secgroup_db -->
<g id="node21" class="node"><title>e8568b05&#45;f1ab&#45;43f5&#45;bf0b&#45;6e0ef0c92ab6:secgroup_db</title>
<polygon fill="none" stroke="black" points="445.5,-396.5 445.5,-465.5 688.5,-465.5 688.5,-396.5 445.5,-396.5"/>
<text text-anchor="middle" x="567" y="-450.3" font-family="Times,serif" font-size="14.00">secgroup_db</text>
<polyline fill="none" stroke="black" points="445.5,-442.5 688.5,-442.5 "/>
<text text-anchor="middle" x="567" y="-427.3" font-family="Times,serif" font-size="14.00">OS::Neutron::SecurityGroup</text>
<polyline fill="none" stroke="black" points="445.5,-419.5 688.5,-419.5 "/>
<text text-anchor="middle" x="567" y="-404.3" font-family="Times,serif" font-size="14.00">53257332&#45;f6bb&#45;42bb&#45;af3e&#45;03c74998b19a</text>
</g>
<!-- e8568b05&#45;f1ab&#45;43f5&#45;bf0b&#45;6e0ef0c92ab6:secgroup_db&#45;&gt;e8568b05&#45;f1ab&#45;43f5&#45;bf0b&#45;6e0ef0c92ab6:mysql_server_eth0 -->
<g id="edge17" class="edge"><title>e8568b05&#45;f1ab&#45;43f5&#45;bf0b&#45;6e0ef0c92ab6:secgroup_db&#45;&gt;e8568b05&#45;f1ab&#45;43f5&#45;bf0b&#45;6e0ef0c92ab6:mysql_server_eth0</title>
<path fill="none" stroke="black" d="M688.646,-449.011C742.191,-457.005 805.306,-466.427 859.904,-474.578"/>
<polygon fill="black" stroke="black" points="859.588,-478.07 869.995,-476.085 860.622,-471.146 859.588,-478.07"/>
</g>
<!-- e8568b05&#45;f1ab&#45;43f5&#45;bf0b&#45;6e0ef0c92ab6:secgroup_webserver -->
<g id="node22" class="node"><title>e8568b05&#45;f1ab&#45;43f5&#45;bf0b&#45;6e0ef0c92ab6:secgroup_webserver</title>
<polygon fill="none" stroke="black" points="1566,-157.5 1566,-226.5 1814,-226.5 1814,-157.5 1566,-157.5"/>
<text text-anchor="middle" x="1690" y="-211.3" font-family="Times,serif" font-size="14.00">secgroup_webserver</text>
<polyline fill="none" stroke="black" points="1566,-203.5 1814,-203.5 "/>
<text text-anchor="middle" x="1690" y="-188.3" font-family="Times,serif" font-size="14.00">OS::Neutron::SecurityGroup</text>
<polyline fill="none" stroke="black" points="1566,-180.5 1814,-180.5 "/>
<text text-anchor="middle" x="1690" y="-165.3" font-family="Times,serif" font-size="14.00">9a69d971&#45;dd07&#45;4cd4&#45;9402&#45;7561108b28c7</text>
</g>
<!-- e8568b05&#45;f1ab&#45;43f5&#45;bf0b&#45;6e0ef0c92ab6:secgroup_webserver&#45;&gt;e8568b05&#45;f1ab&#45;43f5&#45;bf0b&#45;6e0ef0c92ab6:wordpress_group -->
<g id="edge14" class="edge"><title>e8568b05&#45;f1ab&#45;43f5&#45;bf0b&#45;6e0ef0c92ab6:secgroup_webserver&#45;&gt;e8568b05&#45;f1ab&#45;43f5&#45;bf0b&#45;6e0ef0c92ab6:wordpress_group</title>
<path fill="none" stroke="black" d="M1792.49,-226.513C1800.1,-230.849 1807.38,-235.665 1814,-241 1878.87,-293.245 1927.24,-379.23 1952.43,-431.146"/>
<polygon fill="black" stroke="black" points="1949.39,-432.912 1956.86,-440.427 1955.71,-429.895 1949.39,-432.912"/>
</g>
<!-- e8568b05&#45;f1ab&#45;43f5&#45;bf0b&#45;6e0ef0c92ab6:web_server_scaledown_policy -->
<g id="node23" class="node"><title>e8568b05&#45;f1ab&#45;43f5&#45;bf0b&#45;6e0ef0c92ab6:web_server_scaledown_policy</title>
<polygon fill="none" stroke="black" points="2134.5,-396.5 2134.5,-465.5 2351.5,-465.5 2351.5,-396.5 2134.5,-396.5"/>
<text text-anchor="middle" x="2243" y="-450.3" font-family="Times,serif" font-size="14.00">web_server_scaledown_policy</text>
<polyline fill="none" stroke="black" points="2134.5,-442.5 2351.5,-442.5 "/>
<text text-anchor="middle" x="2243" y="-427.3" font-family="Times,serif" font-size="14.00">OS::Heat::ScalingPolicy</text>
<polyline fill="none" stroke="black" points="2134.5,-419.5 2351.5,-419.5 "/>
<text text-anchor="middle" x="2243" y="-404.3" font-family="Times,serif" font-size="14.00">2f4246294a7f4e8883f67fd16159a9ff</text>
</g>
<!-- e8568b05&#45;f1ab&#45;43f5&#45;bf0b&#45;6e0ef0c92ab6:web_server_scaledown_policy&#45;&gt;e8568b05&#45;f1ab&#45;43f5&#45;bf0b&#45;6e0ef0c92ab6:cpu_alarm_low -->
<g id="edge32" class="edge"><title>e8568b05&#45;f1ab&#45;43f5&#45;bf0b&#45;6e0ef0c92ab6:web_server_scaledown_policy&#45;&gt;e8568b05&#45;f1ab&#45;43f5&#45;bf0b&#45;6e0ef0c92ab6:cpu_alarm_low</title>
<path fill="none" stroke="black" d="M2351.79,-431C2361.15,-431 2370.69,-431 2380.2,-431"/>
<polygon fill="black" stroke="black" points="2380.5,-434.5 2390.5,-431 2380.5,-427.5 2380.5,-434.5"/>
</g>
<!-- e8568b05&#45;f1ab&#45;43f5&#45;bf0b&#45;6e0ef0c92ab6:web_server_scaleup_policy -->
<g id="node24" class="node"><title>e8568b05&#45;f1ab&#45;43f5&#45;bf0b&#45;6e0ef0c92ab6:web_server_scaleup_policy</title>
<polygon fill="none" stroke="black" points="2132.5,-484.5 2132.5,-553.5 2353.5,-553.5 2353.5,-484.5 2132.5,-484.5"/>
<text text-anchor="middle" x="2243" y="-538.3" font-family="Times,serif" font-size="14.00">web_server_scaleup_policy</text>
<polyline fill="none" stroke="black" points="2132.5,-530.5 2353.5,-530.5 "/>
<text text-anchor="middle" x="2243" y="-515.3" font-family="Times,serif" font-size="14.00">OS::Heat::ScalingPolicy</text>
<polyline fill="none" stroke="black" points="2132.5,-507.5 2353.5,-507.5 "/>
<text text-anchor="middle" x="2243" y="-492.3" font-family="Times,serif" font-size="14.00">6c1a4a04df24431aaf4570e49c68ce56</text>
</g>
<!-- e8568b05&#45;f1ab&#45;43f5&#45;bf0b&#45;6e0ef0c92ab6:web_server_scaleup_policy&#45;&gt;e8568b05&#45;f1ab&#45;43f5&#45;bf0b&#45;6e0ef0c92ab6:cpu_alarm_high -->
<g id="edge21" class="edge"><title>e8568b05&#45;f1ab&#45;43f5&#45;bf0b&#45;6e0ef0c92ab6:web_server_scaleup_policy&#45;&gt;e8568b05&#45;f1ab&#45;43f5&#45;bf0b&#45;6e0ef0c92ab6:cpu_alarm_high</title>
<path fill="none" stroke="black" d="M2353.7,-519C2362.3,-519 2371.02,-519 2379.73,-519"/>
<polygon fill="black" stroke="black" points="2379.94,-522.5 2389.94,-519 2379.94,-515.5 2379.94,-522.5"/>
</g>
<!-- e8568b05&#45;f1ab&#45;43f5&#45;bf0b&#45;6e0ef0c92ab6:wordpress_group&#45;&gt;e8568b05&#45;f1ab&#45;43f5&#45;bf0b&#45;6e0ef0c92ab6:web_server_scaledown_policy -->
<g id="edge3" class="edge"><title>e8568b05&#45;f1ab&#45;43f5&#45;bf0b&#45;6e0ef0c92ab6:wordpress_group&#45;&gt;e8568b05&#45;f1ab&#45;43f5&#45;bf0b&#45;6e0ef0c92ab6:web_server_scaledown_policy</title>
<path fill="none" stroke="black" d="M2095.84,-454.996C2105.29,-453.445 2114.81,-451.881 2124.23,-450.335"/>
<polygon fill="black" stroke="black" points="2125.1,-453.74 2134.4,-448.666 2123.96,-446.833 2125.1,-453.74"/>
</g>
<!-- e8568b05&#45;f1ab&#45;43f5&#45;bf0b&#45;6e0ef0c92ab6:wordpress_group&#45;&gt;e8568b05&#45;f1ab&#45;43f5&#45;bf0b&#45;6e0ef0c92ab6:web_server_scaleup_policy -->
<g id="edge4" class="edge"><title>e8568b05&#45;f1ab&#45;43f5&#45;bf0b&#45;6e0ef0c92ab6:wordpress_group&#45;&gt;e8568b05&#45;f1ab&#45;43f5&#45;bf0b&#45;6e0ef0c92ab6:web_server_scaleup_policy</title>
<path fill="none" stroke="black" d="M2095.84,-495.004C2104.69,-496.456 2113.6,-497.919 2122.43,-499.368"/>
<polygon fill="black" stroke="black" points="2121.91,-502.831 2132.35,-500.997 2123.05,-495.923 2121.91,-502.831"/>
</g>
</g>
</svg>
