<?xml version="1.0" encoding="UTF-8" standalone="no"?>
<!DOCTYPE svg PUBLIC "-//W3C//DTD SVG 1.1//EN"
 "http://www.w3.org/Graphics/SVG/1.1/DTD/svg11.dtd">
<!-- Generated by graphviz version 2.34.0 (20140110.0949)
 -->
<!-- Title: heat_stack_test0 Pages: 1 -->
<svg width="1746pt" height="498pt"
 viewBox="0.00 0.00 1746.00 498.30" xmlns="http://www.w3.org/2000/svg" xmlns:xlink="http://www.w3.org/1999/xlink">
<g id="graph0" class="graph" transform="scale(1 1) rotate(0) translate(4 494.295)">
<title>heat_stack_test0</title>
<polygon fill="white" stroke="white" points="-4,4 -4,-494.295 1742,-494.295 1742,4 -4,4"/>
<!-- 72acf222&#45;df25&#45;42ca&#45;beca&#45;6897b508829e:wordpress_server -->
<g id="node1" class="node"><title>72acf222&#45;df25&#45;42ca&#45;beca&#45;6897b508829e:wordpress_server</title>
<ellipse fill="#ffefb2" stroke="#ffefb2" cx="329" cy="-74" rx="72.5877" ry="18"/>
<text text-anchor="middle" x="329" y="-70.3" font-family="Times,serif" font-size="14.00">wordpress_server</text>
</g>
<!-- 72acf222&#45;df25&#45;42ca&#45;beca&#45;6897b508829e:wordpress_wait_condition -->
<g id="node4" class="node"><title>72acf222&#45;df25&#45;42ca&#45;beca&#45;6897b508829e:wordpress_wait_condition</title>
<ellipse fill="#b2ffef" stroke="#b2ffef" cx="574" cy="-85" rx="103.982" ry="18"/>
<text text-anchor="middle" x="574" y="-81.3" font-family="Times,serif" font-size="14.00">wordpress_wait_condition</text>
</g>
<!-- 72acf222&#45;df25&#45;42ca&#45;beca&#45;6897b508829e:wordpress_server&#45;&gt;72acf222&#45;df25&#45;42ca&#45;beca&#45;6897b508829e:wordpress_wait_condition -->
<g id="edge5" class="edge"><title>72acf222&#45;df25&#45;42ca&#45;beca&#45;6897b508829e:wordpress_server&#45;&gt;72acf222&#45;df25&#45;42ca&#45;beca&#45;6897b508829e:wordpress_wait_condition</title>
<path fill="none" stroke="black" d="M400.939,-77.2112C420.321,-78.0886 441.793,-79.0606 462.81,-80.012"/>
<polygon fill="black" stroke="black" points="462.931,-83.5209 473.079,-80.4768 463.248,-76.5281 462.931,-83.5209"/>
</g>
<!-- 72acf222&#45;df25&#45;42ca&#45;beca&#45;6897b508829e:wordpress_server_eth0 -->
<g id="node2" class="node"><title>72acf222&#45;df25&#45;42ca&#45;beca&#45;6897b508829e:wordpress_server_eth0</title>
<ellipse fill="#b2ffb2" stroke="#b2ffb2" cx="94" cy="-18" rx="92.0841" ry="18"/>
<text text-anchor="middle" x="94" y="-14.3" font-family="Times,serif" font-size="14.00">wordpress_server_eth0</text>
</g>
<!-- 72acf222&#45;df25&#45;42ca&#45;beca&#45;6897b508829e:wordpress_server_eth0&#45;&gt;72acf222&#45;df25&#45;42ca&#45;beca&#45;6897b508829e:wordpress_server -->
<g id="edge7" class="edge"><title>72acf222&#45;df25&#45;42ca&#45;beca&#45;6897b508829e:wordpress_server_eth0&#45;&gt;72acf222&#45;df25&#45;42ca&#45;beca&#45;6897b508829e:wordpress_server</title>
<path fill="none" stroke="black" d="M152.895,-31.9146C187.242,-40.1698 230.779,-50.6335 265.848,-59.0621"/>
<polygon fill="black" stroke="black" points="265.428,-62.5607 275.969,-61.4946 267.063,-55.7545 265.428,-62.5607"/>
</g>
<!-- 72acf222&#45;df25&#45;42ca&#45;beca&#45;6897b508829e:wordpress_server_floating -->
<g id="node3" class="node"><title>72acf222&#45;df25&#45;42ca&#45;beca&#45;6897b508829e:wordpress_server_floating</title>
<ellipse fill="#ffb2ef" stroke="#ffb2ef" cx="329" cy="-18" rx="104.782" ry="18"/>
<text text-anchor="middle" x="329" y="-14.3" font-family="Times,serif" font-size="14.00">wordpress_server_floating</text>
</g>
<!-- 72acf222&#45;df25&#45;42ca&#45;beca&#45;6897b508829e:wordpress_server_eth0&#45;&gt;72acf222&#45;df25&#45;42ca&#45;beca&#45;6897b508829e:wordpress_server_floating -->
<g id="edge6" class="edge"><title>72acf222&#45;df25&#45;42ca&#45;beca&#45;6897b508829e:wordpress_server_eth0&#45;&gt;72acf222&#45;df25&#45;42ca&#45;beca&#45;6897b508829e:wordpress_server_floating</title>
<path fill="none" stroke="black" d="M186.419,-18C195.501,-18 204.796,-18 214.07,-18"/>
<polygon fill="black" stroke="black" points="214.113,-21.5001 224.113,-18 214.113,-14.5001 214.113,-21.5001"/>
</g>
<!-- 72acf222&#45;df25&#45;42ca&#45;beca&#45;6897b508829e:wordpress_wait_handle -->
<g id="node5" class="node"><title>72acf222&#45;df25&#45;42ca&#45;beca&#45;6897b508829e:wordpress_wait_handle</title>
<ellipse fill="#b2d1ff" stroke="#b2d1ff" cx="94" cy="-126" rx="94.4839" ry="18"/>
<text text-anchor="middle" x="94" y="-122.3" font-family="Times,serif" font-size="14.00">wordpress_wait_handle</text>
</g>
<!-- 72acf222&#45;df25&#45;42ca&#45;beca&#45;6897b508829e:wordpress_wait_handle&#45;&gt;72acf222&#45;df25&#45;42ca&#45;beca&#45;6897b508829e:wordpress_server -->
<g id="edge10" class="edge"><title>72acf222&#45;df25&#45;42ca&#45;beca&#45;6897b508829e:wordpress_wait_handle&#45;&gt;72acf222&#45;df25&#45;42ca&#45;beca&#45;6897b508829e:wordpress_server</title>
<path fill="none" stroke="black" d="M155.914,-112.406C189.294,-104.956 230.626,-95.7314 264.417,-88.1902"/>
<polygon fill="black" stroke="black" points="265.191,-91.6037 274.188,-86.0094 263.666,-84.7717 265.191,-91.6037"/>
</g>
<!-- 72acf222&#45;df25&#45;42ca&#45;beca&#45;6897b508829e:wordpress_wait_handle&#45;&gt;72acf222&#45;df25&#45;42ca&#45;beca&#45;6897b508829e:wordpress_wait_condition -->
<g id="edge9" class="edge"><title>72acf222&#45;df25&#45;42ca&#45;beca&#45;6897b508829e:wordpress_wait_handle&#45;&gt;72acf222&#45;df25&#45;42ca&#45;beca&#45;6897b508829e:wordpress_wait_condition</title>
<path fill="none" stroke="black" d="M183.947,-120.441C252.374,-115.921 349.249,-108.999 434,-101 448.344,-99.6461 463.503,-98.0607 478.329,-96.4237"/>
<polygon fill="black" stroke="black" points="478.976,-99.8733 488.526,-95.2844 478.199,-92.9166 478.976,-99.8733"/>
</g>
<!-- 72acf222&#45;df25&#45;42ca&#45;beca&#45;6897b508829e:wp_auth_key -->
<g id="node6" class="node"><title>72acf222&#45;df25&#45;42ca&#45;beca&#45;6897b508829e:wp_auth_key</title>
<ellipse fill="#b2ffd1" stroke="#b2ffd1" cx="94" cy="-72" rx="57.6901" ry="18"/>
<text text-anchor="middle" x="94" y="-68.3" font-family="Times,serif" font-size="14.00">wp_auth_key</text>
</g>
<!-- 72acf222&#45;df25&#45;42ca&#45;beca&#45;6897b508829e:wp_auth_key&#45;&gt;72acf222&#45;df25&#45;42ca&#45;beca&#45;6897b508829e:wordpress_server -->
<g id="edge8" class="edge"><title>72acf222&#45;df25&#45;42ca&#45;beca&#45;6897b508829e:wp_auth_key&#45;&gt;72acf222&#45;df25&#45;42ca&#45;beca&#45;6897b508829e:wordpress_server</title>
<path fill="none" stroke="black" d="M151.998,-72.4893C180.201,-72.7313 214.763,-73.028 245.77,-73.2942"/>
<polygon fill="black" stroke="black" points="246.106,-76.7971 256.135,-73.3831 246.166,-69.7973 246.106,-76.7971"/>
</g>
<!-- ac165393&#45;1716&#45;4816&#45;b805&#45;88a20fbbc08e:h4tkpz3guxzg -->
<g id="node7" class="node"><title>ac165393&#45;1716&#45;4816&#45;b805&#45;88a20fbbc08e:h4tkpz3guxzg</title>
<ellipse fill="#efb2ff" stroke="#efb2ff" cx="94" cy="-243" rx="60.3893" ry="18"/>
<text text-anchor="middle" x="94" y="-239.3" font-family="Times,serif" font-size="14.00">h4tkpz3guxzg</text>
</g>
<!-- e8568b05&#45;f1ab&#45;43f5&#45;bf0b&#45;6e0ef0c92ab6:cpu_alarm_high -->
<g id="node8" class="node"><title>e8568b05&#45;f1ab&#45;43f5&#45;bf0b&#45;6e0ef0c92ab6:cpu_alarm_high</title>
<ellipse fill="#b2b2ff" stroke="#b2b2ff" cx="1670" cy="-330" rx="68.4888" ry="18"/>
<text text-anchor="middle" x="1670" y="-326.3" font-family="Times,serif" font-size="14.00">cpu_alarm_high</text>
</g>
<!-- e8568b05&#45;f1ab&#45;43f5&#45;bf0b&#45;6e0ef0c92ab6:cpu_alarm_low -->
<g id="node9" class="node"><title>e8568b05&#45;f1ab&#45;43f5&#45;bf0b&#45;6e0ef0c92ab6:cpu_alarm_low</title>
<ellipse fill="#b2b2ff" stroke="#b2b2ff" cx="1670" cy="-276" rx="65.7887" ry="18"/>
<text text-anchor="middle" x="1670" y="-272.3" font-family="Times,serif" font-size="14.00">cpu_alarm_low</text>
</g>
<!-- e8568b05&#45;f1ab&#45;43f5&#45;bf0b&#45;6e0ef0c92ab6:db_password -->
<g id="node10" class="node"><title>e8568b05&#45;f1ab&#45;43f5&#45;bf0b&#45;6e0ef0c92ab6:db_password</title>
<ellipse fill="#b2ffd1" stroke="#b2ffd1" cx="574" cy="-258" rx="57.3905" ry="18"/>
<text text-anchor="middle" x="574" y="-254.3" font-family="Times,serif" font-size="14.00">db_password</text>
</g>
<!-- e8568b05&#45;f1ab&#45;43f5&#45;bf0b&#45;6e0ef0c92ab6:mysql_server -->
<g id="node15" class="node"><title>e8568b05&#45;f1ab&#45;43f5&#45;bf0b&#45;6e0ef0c92ab6:mysql_server</title>
<ellipse fill="#ffefb2" stroke="#ffefb2" cx="805" cy="-238" rx="58.4896" ry="18"/>
<text text-anchor="middle" x="805" y="-234.3" font-family="Times,serif" font-size="14.00">mysql_server</text>
</g>
<!-- e8568b05&#45;f1ab&#45;43f5&#45;bf0b&#45;6e0ef0c92ab6:db_password&#45;&gt;e8568b05&#45;f1ab&#45;43f5&#45;bf0b&#45;6e0ef0c92ab6:mysql_server -->
<g id="edge12" class="edge"><title>e8568b05&#45;f1ab&#45;43f5&#45;bf0b&#45;6e0ef0c92ab6:db_password&#45;&gt;e8568b05&#45;f1ab&#45;43f5&#45;bf0b&#45;6e0ef0c92ab6:mysql_server</title>
<path fill="none" stroke="black" d="M629.27,-253.26C662.013,-250.401 703.943,-246.739 738.52,-243.719"/>
<polygon fill="black" stroke="black" points="738.871,-247.202 748.529,-242.845 738.262,-240.228 738.871,-247.202"/>
</g>
<!-- e8568b05&#45;f1ab&#45;43f5&#45;bf0b&#45;6e0ef0c92ab6:wordpress_group -->
<g id="node25" class="node"><title>e8568b05&#45;f1ab&#45;43f5&#45;bf0b&#45;6e0ef0c92ab6:wordpress_group</title>
<ellipse fill="#b2efff" stroke="#b2efff" cx="1220" cy="-303" rx="71.4873" ry="18"/>
<text text-anchor="middle" x="1220" y="-299.3" font-family="Times,serif" font-size="14.00">wordpress_group</text>
</g>
<!-- e8568b05&#45;f1ab&#45;43f5&#45;bf0b&#45;6e0ef0c92ab6:db_password&#45;&gt;e8568b05&#45;f1ab&#45;43f5&#45;bf0b&#45;6e0ef0c92ab6:wordpress_group -->
<g id="edge11" class="edge"><title>e8568b05&#45;f1ab&#45;43f5&#45;bf0b&#45;6e0ef0c92ab6:db_password&#45;&gt;e8568b05&#45;f1ab&#45;43f5&#45;bf0b&#45;6e0ef0c92ab6:wordpress_group</title>
<path fill="none" stroke="black" d="M629.907,-261.837C744.337,-269.833 1008.65,-288.301 1140.81,-297.536"/>
<polygon fill="black" stroke="black" points="1140.64,-301.033 1150.86,-298.239 1141.13,-294.05 1140.64,-301.033"/>
</g>
<!-- e8568b05&#45;f1ab&#45;43f5&#45;bf0b&#45;6e0ef0c92ab6:extrouter -->
<g id="node11" class="node"><title>e8568b05&#45;f1ab&#45;43f5&#45;bf0b&#45;6e0ef0c92ab6:extrouter</title>
<ellipse fill="#ffb2d1" stroke="#ffb2d1" cx="329" cy="-414" rx="42.4939" ry="18"/>
<text text-anchor="middle" x="329" y="-410.3" font-family="Times,serif" font-size="14.00">extrouter</text>
</g>
<!-- e8568b05&#45;f1ab&#45;43f5&#45;bf0b&#45;6e0ef0c92ab6:extrouter_inside -->
<g id="node12" class="node"><title>e8568b05&#45;f1ab&#45;43f5&#45;bf0b&#45;6e0ef0c92ab6:extrouter_inside</title>
<ellipse fill="#d1ffb2" stroke="#d1ffb2" cx="574" cy="-410" rx="67.6881" ry="18"/>
<text text-anchor="middle" x="574" y="-406.3" font-family="Times,serif" font-size="14.00">extrouter_inside</text>
</g>
<!-- e8568b05&#45;f1ab&#45;43f5&#45;bf0b&#45;6e0ef0c92ab6:extrouter&#45;&gt;e8568b05&#45;f1ab&#45;43f5&#45;bf0b&#45;6e0ef0c92ab6:extrouter_inside -->
<g id="edge13" class="edge"><title>e8568b05&#45;f1ab&#45;43f5&#45;bf0b&#45;6e0ef0c92ab6:extrouter&#45;&gt;e8568b05&#45;f1ab&#45;43f5&#45;bf0b&#45;6e0ef0c92ab6:extrouter_inside</title>
<path fill="none" stroke="black" d="M371.222,-413.321C405.372,-412.759 454.839,-411.945 496.246,-411.263"/>
<polygon fill="black" stroke="black" points="496.369,-414.762 506.31,-411.098 496.254,-407.763 496.369,-414.762"/>
</g>
<!-- e8568b05&#45;f1ab&#45;43f5&#45;bf0b&#45;6e0ef0c92ab6:mysql_server_floating -->
<g id="node17" class="node"><title>e8568b05&#45;f1ab&#45;43f5&#45;bf0b&#45;6e0ef0c92ab6:mysql_server_floating</title>
<ellipse fill="#ffb2ef" stroke="#ffb2ef" cx="805" cy="-406" rx="90.1842" ry="18"/>
<text text-anchor="middle" x="805" y="-402.3" font-family="Times,serif" font-size="14.00">mysql_server_floating</text>
</g>
<!-- e8568b05&#45;f1ab&#45;43f5&#45;bf0b&#45;6e0ef0c92ab6:extrouter_inside&#45;&gt;e8568b05&#45;f1ab&#45;43f5&#45;bf0b&#45;6e0ef0c92ab6:mysql_server_floating -->
<g id="edge2" class="edge"><title>e8568b05&#45;f1ab&#45;43f5&#45;bf0b&#45;6e0ef0c92ab6:extrouter_inside&#45;&gt;e8568b05&#45;f1ab&#45;43f5&#45;bf0b&#45;6e0ef0c92ab6:mysql_server_floating</title>
<path fill="none" stroke="black" d="M641.544,-408.838C661.266,-408.493 683.305,-408.108 704.632,-407.736"/>
<polygon fill="black" stroke="black" points="704.761,-411.234 714.699,-407.56 704.639,-404.235 704.761,-411.234"/>
</g>
<!-- e8568b05&#45;f1ab&#45;43f5&#45;bf0b&#45;6e0ef0c92ab6:extrouter_inside&#45;&gt;e8568b05&#45;f1ab&#45;43f5&#45;bf0b&#45;6e0ef0c92ab6:wordpress_group -->
<g id="edge1" class="edge"><title>e8568b05&#45;f1ab&#45;43f5&#45;bf0b&#45;6e0ef0c92ab6:extrouter_inside&#45;&gt;e8568b05&#45;f1ab&#45;43f5&#45;bf0b&#45;6e0ef0c92ab6:wordpress_group</title>
<path fill="none" stroke="black" d="M628.211,-420.906C653.993,-425.651 685.478,-430.656 714,-433 892.221,-447.645 949.178,-447.934 1112,-374 1140.01,-361.281 1168.91,-341.645 1189.61,-326.245"/>
<polygon fill="black" stroke="black" points="1191.8,-328.972 1197.67,-320.149 1187.58,-323.388 1191.8,-328.972"/>
</g>
<!-- e8568b05&#45;f1ab&#45;43f5&#45;bf0b&#45;6e0ef0c92ab6:fixed_network -->
<g id="node13" class="node"><title>e8568b05&#45;f1ab&#45;43f5&#45;bf0b&#45;6e0ef0c92ab6:fixed_network</title>
<ellipse fill="#ffb2b2" stroke="#ffb2b2" cx="94" cy="-360" rx="61.99" ry="18"/>
<text text-anchor="middle" x="94" y="-356.3" font-family="Times,serif" font-size="14.00">fixed_network</text>
</g>
<!-- e8568b05&#45;f1ab&#45;43f5&#45;bf0b&#45;6e0ef0c92ab6:fixed_subnet -->
<g id="node14" class="node"><title>e8568b05&#45;f1ab&#45;43f5&#45;bf0b&#45;6e0ef0c92ab6:fixed_subnet</title>
<ellipse fill="#ffd1b2" stroke="#ffd1b2" cx="329" cy="-360" rx="55.7903" ry="18"/>
<text text-anchor="middle" x="329" y="-356.3" font-family="Times,serif" font-size="14.00">fixed_subnet</text>
</g>
<!-- e8568b05&#45;f1ab&#45;43f5&#45;bf0b&#45;6e0ef0c92ab6:fixed_network&#45;&gt;e8568b05&#45;f1ab&#45;43f5&#45;bf0b&#45;6e0ef0c92ab6:fixed_subnet -->
<g id="edge20" class="edge"><title>e8568b05&#45;f1ab&#45;43f5&#45;bf0b&#45;6e0ef0c92ab6:fixed_network&#45;&gt;e8568b05&#45;f1ab&#45;43f5&#45;bf0b&#45;6e0ef0c92ab6:fixed_subnet</title>
<path fill="none" stroke="black" d="M155.914,-360C188.784,-360 229.366,-360 262.864,-360"/>
<polygon fill="black" stroke="black" points="263.016,-363.5 273.016,-360 263.016,-356.5 263.016,-363.5"/>
</g>
<!-- e8568b05&#45;f1ab&#45;43f5&#45;bf0b&#45;6e0ef0c92ab6:mysql_server_eth0 -->
<g id="node16" class="node"><title>e8568b05&#45;f1ab&#45;43f5&#45;bf0b&#45;6e0ef0c92ab6:mysql_server_eth0</title>
<ellipse fill="#b2ffb2" stroke="#b2ffb2" cx="574" cy="-314" rx="77.9862" ry="18"/>
<text text-anchor="middle" x="574" y="-310.3" font-family="Times,serif" font-size="14.00">mysql_server_eth0</text>
</g>
<!-- e8568b05&#45;f1ab&#45;43f5&#45;bf0b&#45;6e0ef0c92ab6:fixed_network&#45;&gt;e8568b05&#45;f1ab&#45;43f5&#45;bf0b&#45;6e0ef0c92ab6:mysql_server_eth0 -->
<g id="edge18" class="edge"><title>e8568b05&#45;f1ab&#45;43f5&#45;bf0b&#45;6e0ef0c92ab6:fixed_network&#45;&gt;e8568b05&#45;f1ab&#45;43f5&#45;bf0b&#45;6e0ef0c92ab6:mysql_server_eth0</title>
<path fill="none" stroke="black" d="M141.582,-348.465C165.978,-342.879 196.435,-336.614 224,-333 312.598,-321.385 414.747,-316.846 485.542,-315.085"/>
<polygon fill="black" stroke="black" points="485.839,-318.579 495.754,-314.845 485.674,-311.581 485.839,-318.579"/>
</g>
<!-- e8568b05&#45;f1ab&#45;43f5&#45;bf0b&#45;6e0ef0c92ab6:fixed_network&#45;&gt;e8568b05&#45;f1ab&#45;43f5&#45;bf0b&#45;6e0ef0c92ab6:wordpress_group -->
<g id="edge19" class="edge"><title>e8568b05&#45;f1ab&#45;43f5&#45;bf0b&#45;6e0ef0c92ab6:fixed_network&#45;&gt;e8568b05&#45;f1ab&#45;43f5&#45;bf0b&#45;6e0ef0c92ab6:wordpress_group</title>
<path fill="none" stroke="black" d="M115.892,-377.071C140.259,-395.998 182.516,-425.853 224,-441 371.132,-494.722 416.368,-490 573,-490 573,-490 573,-490 806,-490 945.714,-490 991.19,-488.178 1112,-418 1150.13,-395.848 1182.79,-355.791 1201.67,-329.291"/>
<polygon fill="black" stroke="black" points="1204.69,-331.076 1207.53,-320.869 1198.95,-327.077 1204.69,-331.076"/>
</g>
<!-- e8568b05&#45;f1ab&#45;43f5&#45;bf0b&#45;6e0ef0c92ab6:fixed_subnet&#45;&gt;e8568b05&#45;f1ab&#45;43f5&#45;bf0b&#45;6e0ef0c92ab6:extrouter_inside -->
<g id="edge29" class="edge"><title>e8568b05&#45;f1ab&#45;43f5&#45;bf0b&#45;6e0ef0c92ab6:fixed_subnet&#45;&gt;e8568b05&#45;f1ab&#45;43f5&#45;bf0b&#45;6e0ef0c92ab6:extrouter_inside</title>
<path fill="none" stroke="black" d="M376.565,-369.581C414.377,-377.362 468.075,-388.411 509.774,-396.991"/>
<polygon fill="black" stroke="black" points="509.328,-400.472 519.828,-399.059 510.739,-393.616 509.328,-400.472"/>
</g>
<!-- e8568b05&#45;f1ab&#45;43f5&#45;bf0b&#45;6e0ef0c92ab6:fixed_subnet&#45;&gt;e8568b05&#45;f1ab&#45;43f5&#45;bf0b&#45;6e0ef0c92ab6:mysql_server_eth0 -->
<g id="edge31" class="edge"><title>e8568b05&#45;f1ab&#45;43f5&#45;bf0b&#45;6e0ef0c92ab6:fixed_subnet&#45;&gt;e8568b05&#45;f1ab&#45;43f5&#45;bf0b&#45;6e0ef0c92ab6:mysql_server_eth0</title>
<path fill="none" stroke="black" d="M377.719,-350.967C413.397,-344.213 462.735,-334.873 502.891,-327.272"/>
<polygon fill="black" stroke="black" points="503.714,-330.678 512.889,-325.379 502.412,-323.8 503.714,-330.678"/>
</g>
<!-- e8568b05&#45;f1ab&#45;43f5&#45;bf0b&#45;6e0ef0c92ab6:fixed_subnet&#45;&gt;e8568b05&#45;f1ab&#45;43f5&#45;bf0b&#45;6e0ef0c92ab6:wordpress_group -->
<g id="edge30" class="edge"><title>e8568b05&#45;f1ab&#45;43f5&#45;bf0b&#45;6e0ef0c92ab6:fixed_subnet&#45;&gt;e8568b05&#45;f1ab&#45;43f5&#45;bf0b&#45;6e0ef0c92ab6:wordpress_group</title>
<path fill="none" stroke="black" d="M385.145,-359.195C513.15,-356.886 840.244,-348.457 1112,-320 1124.62,-318.678 1138.02,-316.873 1150.91,-314.93"/>
<polygon fill="black" stroke="black" points="1151.77,-318.339 1161.12,-313.349 1150.7,-311.421 1151.77,-318.339"/>
</g>
<!-- e8568b05&#45;f1ab&#45;43f5&#45;bf0b&#45;6e0ef0c92ab6:mysql_wait_condition -->
<g id="node18" class="node"><title>e8568b05&#45;f1ab&#45;43f5&#45;bf0b&#45;6e0ef0c92ab6:mysql_wait_condition</title>
<ellipse fill="#b2ffef" stroke="#b2ffef" cx="1022" cy="-238" rx="89.8845" ry="18"/>
<text text-anchor="middle" x="1022" y="-234.3" font-family="Times,serif" font-size="14.00">mysql_wait_condition</text>
</g>
<!-- e8568b05&#45;f1ab&#45;43f5&#45;bf0b&#45;6e0ef0c92ab6:mysql_server&#45;&gt;e8568b05&#45;f1ab&#45;43f5&#45;bf0b&#45;6e0ef0c92ab6:mysql_wait_condition -->
<g id="edge22" class="edge"><title>e8568b05&#45;f1ab&#45;43f5&#45;bf0b&#45;6e0ef0c92ab6:mysql_server&#45;&gt;e8568b05&#45;f1ab&#45;43f5&#45;bf0b&#45;6e0ef0c92ab6:mysql_wait_condition</title>
<path fill="none" stroke="black" d="M863.616,-238C881.599,-238 901.975,-238 921.959,-238"/>
<polygon fill="black" stroke="black" points="922.041,-241.5 932.041,-238 922.041,-234.5 922.041,-241.5"/>
</g>
<!-- e8568b05&#45;f1ab&#45;43f5&#45;bf0b&#45;6e0ef0c92ab6:mysql_server_eth0&#45;&gt;e8568b05&#45;f1ab&#45;43f5&#45;bf0b&#45;6e0ef0c92ab6:mysql_server -->
<g id="edge26" class="edge"><title>e8568b05&#45;f1ab&#45;43f5&#45;bf0b&#45;6e0ef0c92ab6:mysql_server_eth0&#45;&gt;e8568b05&#45;f1ab&#45;43f5&#45;bf0b&#45;6e0ef0c92ab6:mysql_server</title>
<path fill="none" stroke="black" d="M626.069,-300.519C642.715,-295.887 661.224,-290.48 678,-285 705.113,-276.143 735.043,-265.036 758.927,-255.843"/>
<polygon fill="black" stroke="black" points="760.37,-259.038 768.432,-252.163 757.843,-252.51 760.37,-259.038"/>
</g>
<!-- e8568b05&#45;f1ab&#45;43f5&#45;bf0b&#45;6e0ef0c92ab6:mysql_server_eth0&#45;&gt;e8568b05&#45;f1ab&#45;43f5&#45;bf0b&#45;6e0ef0c92ab6:mysql_server_floating -->
<g id="edge28" class="edge"><title>e8568b05&#45;f1ab&#45;43f5&#45;bf0b&#45;6e0ef0c92ab6:mysql_server_eth0&#45;&gt;e8568b05&#45;f1ab&#45;43f5&#45;bf0b&#45;6e0ef0c92ab6:mysql_server_floating</title>
<path fill="none" stroke="black" d="M613.847,-329.607C652.559,-345.159 712.154,-369.101 754.294,-386.031"/>
<polygon fill="black" stroke="black" points="753.222,-389.372 763.806,-389.852 755.832,-382.877 753.222,-389.372"/>
</g>
<!-- e8568b05&#45;f1ab&#45;43f5&#45;bf0b&#45;6e0ef0c92ab6:mysql_server_eth0&#45;&gt;e8568b05&#45;f1ab&#45;43f5&#45;bf0b&#45;6e0ef0c92ab6:wordpress_group -->
<g id="edge27" class="edge"><title>e8568b05&#45;f1ab&#45;43f5&#45;bf0b&#45;6e0ef0c92ab6:mysql_server_eth0&#45;&gt;e8568b05&#45;f1ab&#45;43f5&#45;bf0b&#45;6e0ef0c92ab6:wordpress_group</title>
<path fill="none" stroke="black" d="M652.042,-312.684C774.629,-310.59 1012.98,-306.519 1138,-304.384"/>
<polygon fill="black" stroke="black" points="1138.33,-307.878 1148.27,-304.208 1138.21,-300.879 1138.33,-307.878"/>
</g>
<!-- e8568b05&#45;f1ab&#45;43f5&#45;bf0b&#45;6e0ef0c92ab6:mysql_wait_condition&#45;&gt;e8568b05&#45;f1ab&#45;43f5&#45;bf0b&#45;6e0ef0c92ab6:wordpress_group -->
<g id="edge23" class="edge"><title>e8568b05&#45;f1ab&#45;43f5&#45;bf0b&#45;6e0ef0c92ab6:mysql_wait_condition&#45;&gt;e8568b05&#45;f1ab&#45;43f5&#45;bf0b&#45;6e0ef0c92ab6:wordpress_group</title>
<path fill="none" stroke="black" d="M1069.45,-253.404C1098.56,-263.059 1136.16,-275.527 1166.37,-285.547"/>
<polygon fill="black" stroke="black" points="1165.31,-288.881 1175.9,-288.707 1167.51,-282.237 1165.31,-288.881"/>
</g>
<!-- e8568b05&#45;f1ab&#45;43f5&#45;bf0b&#45;6e0ef0c92ab6:mysql_wait_handle -->
<g id="node19" class="node"><title>e8568b05&#45;f1ab&#45;43f5&#45;bf0b&#45;6e0ef0c92ab6:mysql_wait_handle</title>
<ellipse fill="#b2d1ff" stroke="#b2d1ff" cx="574" cy="-201" rx="79.8859" ry="18"/>
<text text-anchor="middle" x="574" y="-197.3" font-family="Times,serif" font-size="14.00">mysql_wait_handle</text>
</g>
<!-- e8568b05&#45;f1ab&#45;43f5&#45;bf0b&#45;6e0ef0c92ab6:mysql_wait_handle&#45;&gt;e8568b05&#45;f1ab&#45;43f5&#45;bf0b&#45;6e0ef0c92ab6:mysql_server -->
<g id="edge15" class="edge"><title>e8568b05&#45;f1ab&#45;43f5&#45;bf0b&#45;6e0ef0c92ab6:mysql_wait_handle&#45;&gt;e8568b05&#45;f1ab&#45;43f5&#45;bf0b&#45;6e0ef0c92ab6:mysql_server</title>
<path fill="none" stroke="black" d="M639.399,-211.405C671.748,-216.632 710.744,-222.932 742.658,-228.089"/>
<polygon fill="black" stroke="black" points="742.324,-231.58 752.754,-229.72 743.44,-224.67 742.324,-231.58"/>
</g>
<!-- e8568b05&#45;f1ab&#45;43f5&#45;bf0b&#45;6e0ef0c92ab6:mysql_wait_handle&#45;&gt;e8568b05&#45;f1ab&#45;43f5&#45;bf0b&#45;6e0ef0c92ab6:mysql_wait_condition -->
<g id="edge16" class="edge"><title>e8568b05&#45;f1ab&#45;43f5&#45;bf0b&#45;6e0ef0c92ab6:mysql_wait_handle&#45;&gt;e8568b05&#45;f1ab&#45;43f5&#45;bf0b&#45;6e0ef0c92ab6:mysql_wait_condition</title>
<path fill="none" stroke="black" d="M653.797,-199.481C718.965,-199.177 813.817,-200.929 896,-211 915.704,-213.415 936.893,-217.436 956.126,-221.648"/>
<polygon fill="black" stroke="black" points="955.463,-225.086 965.987,-223.86 956.995,-218.256 955.463,-225.086"/>
</g>
<!-- e8568b05&#45;f1ab&#45;43f5&#45;bf0b&#45;6e0ef0c92ab6:secgroup_common -->
<g id="node20" class="node"><title>e8568b05&#45;f1ab&#45;43f5&#45;bf0b&#45;6e0ef0c92ab6:secgroup_common</title>
<ellipse fill="#d1b2ff" stroke="#d1b2ff" cx="329" cy="-194" rx="78.7863" ry="18"/>
<text text-anchor="middle" x="329" y="-190.3" font-family="Times,serif" font-size="14.00">secgroup_common</text>
</g>
<!-- e8568b05&#45;f1ab&#45;43f5&#45;bf0b&#45;6e0ef0c92ab6:secgroup_common&#45;&gt;e8568b05&#45;f1ab&#45;43f5&#45;bf0b&#45;6e0ef0c92ab6:mysql_server_eth0 -->
<g id="edge24" class="edge"><title>e8568b05&#45;f1ab&#45;43f5&#45;bf0b&#45;6e0ef0c92ab6:secgroup_common&#45;&gt;e8568b05&#45;f1ab&#45;43f5&#45;bf0b&#45;6e0ef0c92ab6:mysql_server_eth0</title>
<path fill="none" stroke="black" d="M374.217,-208.746C393.698,-216.515 416.162,-227.305 434,-241 454.042,-256.387 448.862,-271.158 470,-285 479.556,-291.258 490.464,-296.182 501.523,-300.053"/>
<polygon fill="black" stroke="black" points="500.658,-303.452 511.25,-303.191 502.807,-296.79 500.658,-303.452"/>
</g>
<!-- e8568b05&#45;f1ab&#45;43f5&#45;bf0b&#45;6e0ef0c92ab6:secgroup_common&#45;&gt;e8568b05&#45;f1ab&#45;43f5&#45;bf0b&#45;6e0ef0c92ab6:wordpress_group -->
<g id="edge25" class="edge"><title>e8568b05&#45;f1ab&#45;43f5&#45;bf0b&#45;6e0ef0c92ab6:secgroup_common&#45;&gt;e8568b05&#45;f1ab&#45;43f5&#45;bf0b&#45;6e0ef0c92ab6:wordpress_group</title>
<path fill="none" stroke="black" d="M386.439,-181.675C519.258,-155.48 859.404,-104.916 1112,-211 1146.6,-225.532 1178.11,-255.615 1197.83,-277.434"/>
<polygon fill="black" stroke="black" points="1195.31,-279.868 1204.55,-285.055 1200.56,-275.239 1195.31,-279.868"/>
</g>
<!-- e8568b05&#45;f1ab&#45;43f5&#45;bf0b&#45;6e0ef0c92ab6:secgroup_db -->
<g id="node21" class="node"><title>e8568b05&#45;f1ab&#45;43f5&#45;bf0b&#45;6e0ef0c92ab6:secgroup_db</title>
<ellipse fill="#d1b2ff" stroke="#d1b2ff" cx="329" cy="-268" rx="55.7903" ry="18"/>
<text text-anchor="middle" x="329" y="-264.3" font-family="Times,serif" font-size="14.00">secgroup_db</text>
</g>
<!-- e8568b05&#45;f1ab&#45;43f5&#45;bf0b&#45;6e0ef0c92ab6:secgroup_db&#45;&gt;e8568b05&#45;f1ab&#45;43f5&#45;bf0b&#45;6e0ef0c92ab6:mysql_server_eth0 -->
<g id="edge17" class="edge"><title>e8568b05&#45;f1ab&#45;43f5&#45;bf0b&#45;6e0ef0c92ab6:secgroup_db&#45;&gt;e8568b05&#45;f1ab&#45;43f5&#45;bf0b&#45;6e0ef0c92ab6:mysql_server_eth0</title>
<path fill="none" stroke="black" d="M377.719,-277.033C413.397,-283.787 462.735,-293.127 502.891,-300.728"/>
<polygon fill="black" stroke="black" points="502.412,-304.2 512.889,-302.621 503.714,-297.322 502.412,-304.2"/>
</g>
<!-- e8568b05&#45;f1ab&#45;43f5&#45;bf0b&#45;6e0ef0c92ab6:secgroup_webserver -->
<g id="node22" class="node"><title>e8568b05&#45;f1ab&#45;43f5&#45;bf0b&#45;6e0ef0c92ab6:secgroup_webserver</title>
<ellipse fill="#d1b2ff" stroke="#d1b2ff" cx="1022" cy="-108" rx="83.3857" ry="18"/>
<text text-anchor="middle" x="1022" y="-104.3" font-family="Times,serif" font-size="14.00">secgroup_webserver</text>
</g>
<!-- e8568b05&#45;f1ab&#45;43f5&#45;bf0b&#45;6e0ef0c92ab6:secgroup_webserver&#45;&gt;e8568b05&#45;f1ab&#45;43f5&#45;bf0b&#45;6e0ef0c92ab6:wordpress_group -->
<g id="edge14" class="edge"><title>e8568b05&#45;f1ab&#45;43f5&#45;bf0b&#45;6e0ef0c92ab6:secgroup_webserver&#45;&gt;e8568b05&#45;f1ab&#45;43f5&#45;bf0b&#45;6e0ef0c92ab6:wordpress_group</title>
<path fill="none" stroke="black" d="M1077.66,-121.399C1089.75,-126.004 1101.94,-132.072 1112,-140 1158.66,-176.777 1191.63,-239.735 1207.75,-275.693"/>
<polygon fill="black" stroke="black" points="1204.64,-277.312 1211.85,-285.075 1211.06,-274.51 1204.64,-277.312"/>
</g>
<!-- e8568b05&#45;f1ab&#45;43f5&#45;bf0b&#45;6e0ef0c92ab6:web_server_scaledown_policy -->
<g id="node23" class="node"><title>e8568b05&#45;f1ab&#45;43f5&#45;bf0b&#45;6e0ef0c92ab6:web_server_scaledown_policy</title>
<ellipse fill="#efffb2" stroke="#efffb2" cx="1447" cy="-276" rx="118.879" ry="18"/>
<text text-anchor="middle" x="1447" y="-272.3" font-family="Times,serif" font-size="14.00">web_server_scaledown_policy</text>
</g>
<!-- e8568b05&#45;f1ab&#45;43f5&#45;bf0b&#45;6e0ef0c92ab6:web_server_scaledown_policy&#45;&gt;e8568b05&#45;f1ab&#45;43f5&#45;bf0b&#45;6e0ef0c92ab6:cpu_alarm_low -->
<g id="edge32" class="edge"><title>e8568b05&#45;f1ab&#45;43f5&#45;bf0b&#45;6e0ef0c92ab6:web_server_scaledown_policy&#45;&gt;e8568b05&#45;f1ab&#45;43f5&#45;bf0b&#45;6e0ef0c92ab6:cpu_alarm_low</title>
<path fill="none" stroke="black" d="M1565.94,-276C1575.51,-276 1585,-276 1594.12,-276"/>
<polygon fill="black" stroke="black" points="1594.26,-279.5 1604.26,-276 1594.26,-272.5 1594.26,-279.5"/>
</g>
<!-- e8568b05&#45;f1ab&#45;43f5&#45;bf0b&#45;6e0ef0c92ab6:web_server_scaleup_policy -->
<g id="node24" class="node"><title>e8568b05&#45;f1ab&#45;43f5&#45;bf0b&#45;6e0ef0c92ab6:web_server_scaleup_policy</title>
<ellipse fill="#efffb2" stroke="#efffb2" cx="1447" cy="-330" rx="108.581" ry="18"/>
<text text-anchor="middle" x="1447" y="-326.3" font-family="Times,serif" font-size="14.00">web_server_scaleup_policy</text>
</g>
<!-- e8568b05&#45;f1ab&#45;43f5&#45;bf0b&#45;6e0ef0c92ab6:web_server_scaleup_policy&#45;&gt;e8568b05&#45;f1ab&#45;43f5&#45;bf0b&#45;6e0ef0c92ab6:cpu_alarm_high -->
<g id="edge21" class="edge"><title>e8568b05&#45;f1ab&#45;43f5&#45;bf0b&#45;6e0ef0c92ab6:web_server_scaleup_policy&#45;&gt;e8568b05&#45;f1ab&#45;43f5&#45;bf0b&#45;6e0ef0c92ab6:cpu_alarm_high</title>
<path fill="none" stroke="black" d="M1555.59,-330C1567.73,-330 1579.92,-330 1591.56,-330"/>
<polygon fill="black" stroke="black" points="1591.65,-333.5 1601.65,-330 1591.65,-326.5 1591.65,-333.5"/>
</g>
<!-- e8568b05&#45;f1ab&#45;43f5&#45;bf0b&#45;6e0ef0c92ab6:wordpress_group&#45;&gt;e8568b05&#45;f1ab&#45;43f5&#45;bf0b&#45;6e0ef0c92ab6:web_server_scaledown_policy -->
<g id="edge4" class="edge"><title>e8568b05&#45;f1ab&#45;43f5&#45;bf0b&#45;6e0ef0c92ab6:wordpress_group&#45;&gt;e8568b05&#45;f1ab&#45;43f5&#45;bf0b&#45;6e0ef0c92ab6:web_server_scaledown_policy</title>
<path fill="none" stroke="black" d="M1284.87,-295.335C1303.1,-293.148 1323.44,-290.707 1343.36,-288.317"/>
<polygon fill="black" stroke="black" points="1343.9,-291.778 1353.41,-287.111 1343.06,-284.827 1343.9,-291.778"/>
</g>
<!-- e8568b05&#45;f1ab&#45;43f5&#45;bf0b&#45;6e0ef0c92ab6:wordpress_group&#45;&gt;e8568b05&#45;f1ab&#45;43f5&#45;bf0b&#45;6e0ef0c92ab6:web_server_scaleup_policy -->
<g id="edge3" class="edge"><title>e8568b05&#45;f1ab&#45;43f5&#45;bf0b&#45;6e0ef0c92ab6:wordpress_group&#45;&gt;e8568b05&#45;f1ab&#45;43f5&#45;bf0b&#45;6e0ef0c92ab6:web_server_scaleup_policy</title>
<path fill="none" stroke="black" d="M1284.87,-310.665C1304.61,-313.034 1326.83,-315.699 1348.31,-318.277"/>
<polygon fill="black" stroke="black" points="1348.1,-321.777 1358.45,-319.493 1348.93,-314.827 1348.1,-321.777"/>
</g>
</g>
</svg>
